<svg id="visual" viewBox="0 0 1440 300" width="1440" height="300" xmlns="http://www.w3.org/2000/svg" xmlns:xlink="http://www.w3.org/1999/xlink" version="1.1"><rect x="0" y="0" width="1440" height="300" fill="#a9a9a9"></rect><path d="M0 236L60 237.5C120 239 240 242 360 240.8C480 239.7 600 234.3 720 235.3C840 236.3 960 243.7 1080 246.2C1200 248.7 1320 246.3 1380 245.2L1440 244L1440 0L1380 0C1320 0 1200 0 1080 0C960 0 840 0 720 0C600 0 480 0 360 0C240 0 120 0 60 0L0 0Z" fill="#a9a9a9"></path><path d="M0 159L60 160.8C120 162.7 240 166.3 360 172.3C480 178.3 600 186.7 720 189.7C840 192.7 960 190.3 1080 186C1200 181.7 1320 175.3 1380 172.2L1440 169L1440 0L1380 0C1320 0 1200 0 1080 0C960 0 840 0 720 0C600 0 480 0 360 0C240 0 120 0 60 0L0 0Z" fill="#798092"></path><path d="M0 122L60 120.7C120 119.3 240 116.7 360 120C480 123.3 600 132.7 720 137.3C840 142 960 142 1080 141.8C1200 141.7 1320 141.3 1380 141.2L1440 141L1440 0L1380 0C1320 0 1200 0 1080 0C960 0 840 0 720 0C600 0 480 0 360 0C240 0 120 0 60 0L0 0Z" fill="#48597c"></path><path d="M0 44L60 42.8C120 41.7 240 39.3 360 40.5C480 41.7 600 46.3 720 51.3C840 56.3 960 61.7 1080 63.7C1200 65.7 1320 64.3 1380 63.7L1440 63L1440 0L1380 0C1320 0 1200 0 1080 0C960 0 840 0 720 0C600 0 480 0 360 0C240 0 120 0 60 0L0 0Z" fill="#043565"></path></svg>